# xmcd CD database file generated by Grip 3.1.4
# 
# Track frame offsets:
#       150
#       14377
#       27987
#       42800
#       57202
#       76495
#       90002
#       106035
#       118287
#       129242
#       141222
#       155359
#       174142
#       189480
#       200882
#       214097
#       222902
#       242497
#       256125
#       269995
# 
# Disc length: 3775 seconds
# 
# Revision: 1
# Processed by: cddbd v1.5.1PL0 Copyright (c) Steve Scherf et al.
# Submitted via: Grip 3.1.4
# 
DISCID=120ebd14
DTITLE=Various Artist - Irish Country
DYEAR=1900
DGENRE=Folk
TTITLE0=Roly Daniels - Cockles and Mussels
TTITLE1=Brendan Quinn - Maggie
TTITLE2=Frankie McBride - Nobod's Child
TTITLE3=Merv Allen and Jimmy Johnston Showband - The Pub With No Beer
TTITLE4=Barnbrack - Isle Of Inisfree
TTITLE5=Philomena Quinn - Two Little Orphans
TTITLE6=Big Tom and Mainliners - The Old Rustic Bridge
TTITLE7=Bridie Gallagher - The Boys From County Armagh
TTITLE8=Brian Coll - Walk On By
TTITLE9=Roly Daniels - Ireland Is Going All Western
TTITLE10=Philomena Quinn - One Day At A Time
TTITLE11=Barnbrack - If We Only Had Old Ireland Over Here
TTITLE12=Frankie McBride - Ebony Eyes
TTITLE13=Big Tom and Mainliners - I'l Settle For Old Ireland
TTITLE14=Brendan Quinn - Ruby Don't Take Your Love To Town
TTITLE15=Brian Coll and Platterman - Ireland Swings
TTITLE16=Barnbrack - Limerick You're A Lady
TTITLE17=Roly Daniels - Whisky On A Sunday
TTITLE18=Pat McGeegan - Last Word In Lonesome Is Me
TTITLE19=Ricky McVey and Hilton Showband - It Keeps Right On Hurtin'
EXTD=
EXTT0=
EXTT1=
EXTT2=
EXTT3=
EXTT4=
EXTT5=
EXTT6=
EXTT7=
EXTT8=
EXTT9=
EXTT10=
EXTT11=
EXTT12=
EXTT13=
EXTT14=
EXTT15=
EXTT16=
EXTT17=
EXTT18=
EXTT19=
PLAYORDER=
